<svg xmlns="http://www.w3.org/2000/svg" width="39.886" height="37.764" viewBox="0 0 39.886 37.764">
  <g id="Group_406" data-name="Group 406" transform="translate(0 -13.618)">
    <path id="Path_250" data-name="Path 250" d="M256.275,13.621l9.191,15.555,2.605-1.217a12.044,12.044,0,0,0-11.8-14.338Z" transform="translate(-236.311 -0.003)" fill="#077ccc"/>
    <path id="Path_251" data-name="Path 251" d="M113.532,13.618h-.021a12.044,12.044,0,0,0-11.817,14.339l11.818,5.519,9.212-4.3a14.84,14.84,0,0,0,.418-3.517c0-6.64-4.3-12.023-9.609-12.038Z" transform="translate(-93.568)" fill="#09a1e5"/>
    <path id="Path_252" data-name="Path 252" d="M361.384,197.679h-3.913V221.1a12.04,12.04,0,0,0,3.913-23.425Z" transform="translate(-329.623 -169.722)" fill="#ff3187"/>
    <path id="Path_253" data-name="Path 253" d="M267.744,202.11,256,206.58v15.651a11.991,11.991,0,0,0,7.9,2.959c5.319,0,9.63-5.39,9.63-12.038C273.534,208.21,271.151,203.964,267.744,202.11Z" transform="translate(-236.056 -173.808)" fill="#ff5178"/>
    <path id="Path_254" data-name="Path 254" d="M357.473,189.327l3.84,1c.026-.115.05-.229.073-.345a12.024,12.024,0,0,0-3.913-.651Z" transform="translate(-329.625 -162.021)" fill="#622876"/>
    <path id="Path_255" data-name="Path 255" d="M263.906,189.327a11.991,11.991,0,0,0-7.9,2.959l3.913,6.778a12.059,12.059,0,0,0,7.832-8.741A7.989,7.989,0,0,0,263.906,189.327Z" transform="translate(-236.058 -162.021)" fill="#962b7c"/>
    <path id="Path_256" data-name="Path 256" d="M154.56,437.29a11.991,11.991,0,0,0,7.9-2.959v-2.2Z" transform="translate(-142.519 -385.908)" fill="#ffb24a"/>
    <path id="Path_257" data-name="Path 257" d="M19.943,215.944V202.5L8.125,197.68a12.04,12.04,0,0,0,3.913,23.425c3.275,0,6.165-2.042,7.9-5.161Z" transform="translate(0 -169.723)" fill="#ffd23b"/>
    <path id="Path_258" data-name="Path 258" d="M162.433,192.286a11.992,11.992,0,0,0-7.9-2.959l7.9,5.412Z" transform="translate(-142.49 -162.021)" fill="#49b296"/>
    <path id="Path_259" data-name="Path 259" d="M108.216,189.327a12.02,12.02,0,0,0-3.913.651,12.056,12.056,0,0,0,7.9,9.087l3.034-5.931A8.844,8.844,0,0,0,108.216,189.327Z" transform="translate(-96.178 -162.021)" fill="#89c247"/>
    <path id="Path_260" data-name="Path 260" d="M249.517,314.32a11.972,11.972,0,0,1-2.29.541l-2.5,9.991a12.1,12.1,0,0,0,.878.847,12.05,12.05,0,0,0,3.913-11.379Z" transform="translate(-225.661 -277.277)" fill="#ff7169"/>
    <path id="Path_261" data-name="Path 261" d="M208.7,314.862a12.094,12.094,0,0,1-5.535-.541,12.049,12.049,0,0,0,3.034,10.532,13.749,13.749,0,0,0,2.6-8.231,15.132,15.132,0,0,0-.1-1.759Z" transform="translate(-187.134 -277.278)" fill="#ff9259"/>
    <path id="Path_262" data-name="Path 262" d="M245.6,227.315a12.092,12.092,0,0,0-.879.847l2.5,6.472a11.977,11.977,0,0,0,2.29-.541A12.025,12.025,0,0,0,245.6,227.315Z" transform="translate(-225.66 -197.05)" fill="#2d2570"/>
    <path id="Path_263" data-name="Path 263" d="M205.776,244.123a12.093,12.093,0,0,0,5.535.541,13.4,13.4,0,0,0-2.5-6.472,12,12,0,0,0-3.034,5.931Z" transform="translate(-189.746 -207.079)" fill="#2d3e53"/>
  </g>
</svg>